# xmcd
#
# Track frame offsets: 
#        150
#        10840
#        23750
#        37462
#        49680
#        59900
#        68320
#        79081
#        90071
#        101569
#        114174
#
# Disc length: 1724 seconds
#
# Revision: 0
# Processed by: cddbd v1.5.2PL0 Copyright (c) Steve Scherf et al.
# Submitted via: ExactAudioCopy v0.99pb3
#
DISCID=7f06ba0b
DTITLE=Flatt and Scruggs - Nashville Airplane
DYEAR=1970
DGENRE=Bluegrass
TTITLE0=Universal Soldier
TTITLE1=Like A Rolling Stone
TTITLE2=Folsom Prison Blues
TTITLE3=Gentle On My Mind
TTITLE4=If I Were A Carpenter
TTITLE5=Frieda Florentine
TTITLE6=I'll Be Your Baby Tonight
TTITLE7=Rainy Day Women #12 and #35
TTITLE8=Catch The Wind
TTITLE9=Long Road To Houston
TTITLE10=The Times They  Are A-Changin'
EXTD=
EXTT0=
EXTT1=
EXTT2=
EXTT3=
EXTT4=
EXTT5=
EXTT6=
EXTT7=
EXTT8=
EXTT9=
EXTT10=
PLAYORDER=
